<svg width="86" height="72" viewBox="0 0 86 72" fill="none" xmlns="http://www.w3.org/2000/svg">
<rect x="0.5" y="21.5" width="85" height="29" rx="14.5" fill="white" stroke="black"/>
<path d="M39 54.5L47 54.5C49.4853 54.5 51.5 56.5147 51.5 59L51.5 70C51.5 70.8284 50.8284 71.5 50 71.5L36 71.5C35.1716 71.5 34.5 70.8284 34.5 70L34.5 59C34.5 56.5147 36.5147 54.5 39 54.5Z" fill="white" stroke="black"/>
<line x1="35" y1="67.5" x2="51" y2="67.5" stroke="black"/>
<path d="M39 54.5L47 54.5C49.4853 54.5 51.5 56.5147 51.5 59L51.5 70C51.5 70.8284 50.8284 71.5 50 71.5L36 71.5C35.1716 71.5 34.5 70.8284 34.5 70L34.5 59C34.5 56.5147 36.5147 54.5 39 54.5Z" fill="white" stroke="black"/>
<line x1="35" y1="67.5" x2="51" y2="67.5" stroke="black"/>
<path d="M64 54.5L72 54.5C74.4853 54.5 76.5 56.5147 76.5 59L76.5 70C76.5 70.8284 75.8284 71.5 75 71.5L61 71.5C60.1716 71.5 59.5 70.8284 59.5 70L59.5 59C59.5 56.5147 61.5147 54.5 64 54.5Z" fill="white" stroke="black"/>
<line x1="60" y1="67.5" x2="76" y2="67.5" stroke="black"/>
<path d="M47 17.5L39 17.5C36.5147 17.5 34.5 15.4853 34.5 13L34.5 2.00003C34.5 1.1716 35.1716 0.500029 36 0.500029L50 0.50003C50.8284 0.50003 51.5 1.1716 51.5 2.00003L51.5 13C51.5 15.4853 49.4853 17.5 47 17.5Z" fill="white" stroke="black"/>
<line x1="51" y1="4.50002" x2="35" y2="4.50001" stroke="black"/>
<path d="M22 17.5L14 17.5C11.5147 17.5 9.5 15.4853 9.5 13L9.5 2.00003C9.5 1.1716 10.1716 0.500029 11 0.500029L25 0.50003C25.8284 0.50003 26.5 1.1716 26.5 2.00003L26.5 13C26.5 15.4853 24.4853 17.5 22 17.5Z" fill="white" stroke="black"/>
<line x1="26" y1="4.5" x2="10" y2="4.5" stroke="black"/>
<path d="M14 54.5L22 54.5C24.4853 54.5 26.5 56.5147 26.5 59L26.5 70C26.5 70.8284 25.8284 71.5 25 71.5L11 71.5C10.1716 71.5 9.5 70.8284 9.5 70L9.5 59C9.5 56.5147 11.5147 54.5 14 54.5Z" fill="white" stroke="black"/>
<line x1="10" y1="67.5" x2="26" y2="67.5" stroke="black"/>
<path d="M72 17.5L64 17.5C61.5147 17.5 59.5 15.4853 59.5 13L59.5 2.00001C59.5 1.17159 60.1716 0.500014 61 0.500014L75 0.500015C75.8284 0.500015 76.5 1.17159 76.5 2.00002L76.5 13C76.5 15.4853 74.4853 17.5 72 17.5Z" fill="white" stroke="black"/>
<line x1="76" y1="4.50002" x2="60" y2="4.50001" stroke="black"/>
</svg>
