<svg width="100" height="70" viewBox="0 0 100 70" fill="none" xmlns="http://www.w3.org/2000/svg">
<rect x="20.5" y="20.5" width="59" height="29" rx="1.5" fill="white" stroke="black"/>
<path d="M17.5 31L17.5 39C17.5 41.4853 15.4853 43.5 13 43.5L2 43.5C1.17157 43.5 0.499999 42.8284 0.499999 42L0.5 28C0.5 27.1716 1.17157 26.5 2 26.5L13 26.5C15.4853 26.5 17.5 28.5147 17.5 31Z" fill="white" stroke="black"/>
<line x1="3.5" y1="27" x2="3.5" y2="43" stroke="black"/>
<path d="M60 52.5L68 52.5C70.4853 52.5 72.5 54.5147 72.5 57L72.5 68C72.5 68.8284 71.8284 69.5 71 69.5L57 69.5C56.1716 69.5 55.5 68.8284 55.5 68L55.5 57C55.5 54.5147 57.5147 52.5 60 52.5Z" fill="white" stroke="black"/>
<line x1="56" y1="66.5" x2="72" y2="66.5" stroke="black"/>
<path d="M82.5 39L82.5 31C82.5 28.5147 84.5147 26.5 87 26.5L98 26.5C98.8284 26.5 99.5 27.1716 99.5 28L99.5 42C99.5 42.8284 98.8284 43.5 98 43.5L87 43.5C84.5147 43.5 82.5 41.4853 82.5 39Z" fill="white" stroke="black"/>
<line x1="96.5" y1="43" x2="96.5" y2="27" stroke="black"/>
<path d="M68 17.5L60 17.5C57.5147 17.5 55.5 15.4853 55.5 13L55.5 2C55.5 1.17157 56.1716 0.499999 57 0.499999L71 0.5C71.8284 0.5 72.5 1.17157 72.5 2L72.5 13C72.5 15.4853 70.4853 17.5 68 17.5Z" fill="white" stroke="black"/>
<line x1="72" y1="3.5" x2="56" y2="3.5" stroke="black"/>
<path d="M40 17.5L32 17.5C29.5147 17.5 27.5 15.4853 27.5 13L27.5 2C27.5 1.17157 28.1716 0.499999 29 0.499999L43 0.5C43.8284 0.5 44.5 1.17157 44.5 2L44.5 13C44.5 15.4853 42.4853 17.5 40 17.5Z" fill="white" stroke="black"/>
<line x1="44" y1="3.5" x2="28" y2="3.5" stroke="black"/>
<path d="M32 52.5L40 52.5C42.4853 52.5 44.5 54.5147 44.5 57L44.5 68C44.5 68.8284 43.8284 69.5 43 69.5L29 69.5C28.1716 69.5 27.5 68.8284 27.5 68L27.5 57C27.5 54.5147 29.5147 52.5 32 52.5Z" fill="white" stroke="black"/>
<line x1="28" y1="66.5" x2="44" y2="66.5" stroke="black"/>
</svg>
