<svg width="60" height="70" viewBox="0 0 60 70" fill="none" xmlns="http://www.w3.org/2000/svg">
<rect x="0.5" y="20.5" width="59" height="29" rx="1.5" fill="white" stroke="black"/>
<path d="M9 0.5H23C23.8284 0.5 24.5 1.17157 24.5 2V13C24.5 15.4853 22.4853 17.5 20 17.5H12C9.51472 17.5 7.5 15.4853 7.5 13V2C7.5 1.17157 8.17157 0.5 9 0.5Z" fill="white" stroke="black"/>
<line x1="8" y1="3.5" x2="24" y2="3.5" stroke="black"/>
<path d="M40 52.5L48 52.5C50.4853 52.5 52.5 54.5147 52.5 57L52.5 68C52.5 68.8284 51.8284 69.5 51 69.5L37 69.5C36.1716 69.5 35.5 68.8284 35.5 68L35.5 57C35.5 54.5147 37.5147 52.5 40 52.5Z" fill="white" stroke="black"/>
<line x1="36" y1="66.5" x2="52" y2="66.5" stroke="black"/>
<path d="M48 17.5L40 17.5C37.5147 17.5 35.5 15.4853 35.5 13L35.5 2C35.5 1.17157 36.1716 0.499999 37 0.499999L51 0.5C51.8284 0.5 52.5 1.17157 52.5 2L52.5 13C52.5 15.4853 50.4853 17.5 48 17.5Z" fill="white" stroke="black"/>
<line x1="52" y1="3.5" x2="36" y2="3.5" stroke="black"/>
<path d="M12 52.5L20 52.5C22.4853 52.5 24.5 54.5147 24.5 57L24.5 68C24.5 68.8284 23.8284 69.5 23 69.5L9 69.5C8.17157 69.5 7.5 68.8284 7.5 68L7.5 57C7.5 54.5147 9.51472 52.5 12 52.5Z" fill="white" stroke="black"/>
<line x1="8" y1="66.5" x2="24" y2="66.5" stroke="black"/>
</svg>
