<svg width="120" height="70" viewBox="0 0 120 70" fill="none" xmlns="http://www.w3.org/2000/svg">
<rect x="20.5" y="20.5" width="79" height="29" rx="1.5" fill="white" stroke="black"/>
<path d="M17.5 31L17.5 39C17.5 41.4853 15.4853 43.5 13 43.5L2 43.5C1.17157 43.5 0.499999 42.8284 0.499999 42L0.5 28C0.5 27.1716 1.17157 26.5 2 26.5L13 26.5C15.4853 26.5 17.5 28.5147 17.5 31Z" fill="white" stroke="black"/>
<line x1="4.5" y1="27" x2="4.5" y2="43" stroke="black"/>
<path d="M58 52.5L66 52.5C68.4853 52.5 70.5 54.5147 70.5 57L70.5 68C70.5 68.8284 69.8284 69.5 69 69.5L55 69.5C54.1716 69.5 53.5 68.8284 53.5 68L53.5 57C53.5 54.5147 55.5147 52.5 58 52.5Z" fill="white" stroke="black"/>
<line x1="54" y1="65.5" x2="70" y2="65.5" stroke="black"/>
<path d="M83 52.5L91 52.5C93.4853 52.5 95.5 54.5147 95.5 57L95.5 68C95.5 68.8284 94.8284 69.5 94 69.5L80 69.5C79.1716 69.5 78.5 68.8284 78.5 68L78.5 57C78.5 54.5147 80.5147 52.5 83 52.5Z" fill="white" stroke="black"/>
<line x1="79" y1="65.5" x2="95" y2="65.5" stroke="black"/>
<path d="M102.5 39L102.5 31C102.5 28.5147 104.515 26.5 107 26.5L118 26.5C118.828 26.5 119.5 27.1716 119.5 28L119.5 42C119.5 42.8284 118.828 43.5 118 43.5L107 43.5C104.515 43.5 102.5 41.4853 102.5 39Z" fill="white" stroke="black"/>
<line x1="116.5" y1="43" x2="116.5" y2="27" stroke="black"/>
<path d="M66 17.5L58 17.5C55.5147 17.5 53.5 15.4853 53.5 13L53.5 2C53.5 1.17157 54.1716 0.499999 55 0.499999L69 0.5C69.8284 0.5 70.5 1.17157 70.5 2L70.5 13C70.5 15.4853 68.4853 17.5 66 17.5Z" fill="white" stroke="black"/>
<line x1="70" y1="4.5" x2="54" y2="4.5" stroke="black"/>
<path d="M39 17.5L31 17.5C28.5147 17.5 26.5 15.4853 26.5 13L26.5 2C26.5 1.17157 27.1716 0.499999 28 0.499999L42 0.5C42.8284 0.5 43.5 1.17157 43.5 2L43.5 13C43.5 15.4853 41.4853 17.5 39 17.5Z" fill="white" stroke="black"/>
<line x1="43" y1="4.5" x2="27" y2="4.5" stroke="black"/>
<path d="M31 52.5L39 52.5C41.4853 52.5 43.5 54.5147 43.5 57L43.5 68C43.5 68.8284 42.8284 69.5 42 69.5L28 69.5C27.1716 69.5 26.5 68.8284 26.5 68L26.5 57C26.5 54.5147 28.5147 52.5 31 52.5Z" fill="white" stroke="black"/>
<line x1="27" y1="65.5" x2="43" y2="65.5" stroke="black"/>
<path d="M91 17.5L83 17.5C80.5147 17.5 78.5 15.4853 78.5 13L78.5 2C78.5 1.17157 79.1716 0.499999 80 0.499999L94 0.5C94.8284 0.5 95.5 1.17157 95.5 2L95.5 13C95.5 15.4853 93.4853 17.5 91 17.5Z" fill="white" stroke="black"/>
<line x1="95" y1="4.5" x2="79" y2="4.5" stroke="black"/>
</svg>
