<svg width="72" height="72" viewBox="0 0 72 72" fill="none" xmlns="http://www.w3.org/2000/svg">
<rect x="21.5" y="21.5" width="29" height="29" rx="14.5" fill="white" stroke="black"/>
<path d="M29 0.5H43C43.8284 0.5 44.5 1.17157 44.5 2V13C44.5 15.4853 42.4853 17.5 40 17.5H32C29.5147 17.5 27.5 15.4853 27.5 13V2C27.5 1.17157 28.1716 0.5 29 0.5Z" fill="white" stroke="black"/>
<line x1="27.6" y1="3.1" x2="45" y2="3.1" stroke="black"/>
<path d="M17.5 32L17.5 40C17.5 42.4853 15.4853 44.5 13 44.5L2 44.5C1.17157 44.5 0.499999 43.8284 0.499999 43L0.5 29C0.5 28.1716 1.17157 27.5 2 27.5L13 27.5C15.4853 27.5 17.5 29.5147 17.5 32Z" fill="white" stroke="black"/>
<line x1="4.09998" y1="27" x2="4.09997" y2="44.4" stroke="black"/>
<path d="M32 54.5H40C42.4853 54.5 44.5 56.5147 44.5 59V70C44.5 70.8284 43.8284 71.5 43 71.5H29C28.1716 71.5 27.5 70.8284 27.5 70V59C27.5 56.5147 29.5147 54.5 32 54.5Z" fill="white" stroke="black"/>
<line x1="27" y1="67.9" x2="44.4" y2="67.9" stroke="black"/>
<path d="M71.5 29L71.5 43C71.5 43.8284 70.8284 44.5 70 44.5L59 44.5C56.5147 44.5 54.5 42.4853 54.5 40L54.5 32C54.5 29.5147 56.5147 27.5 59 27.5L70 27.5C70.8284 27.5 71.5 28.1716 71.5 29Z" fill="white" stroke="black"/>
<line x1="68.9" y1="27.6" x2="68.9" y2="45" stroke="black"/>
</svg>
