<svg width="73" height="67" viewBox="0 0 73 67" fill="none" xmlns="http://www.w3.org/2000/svg">
<rect x="22.5" y="19.5" width="29" height="29" rx="14.5" fill="white" stroke="black"/>
<path d="M30 0.5H44C44.8284 0.5 45.5 1.17157 45.5 2V13C45.5 15.4853 43.4853 17.5 41 17.5H33C30.5147 17.5 28.5 15.4853 28.5 13V2C28.5 1.17157 29.1716 0.5 30 0.5Z" fill="white" stroke="black"/>
<line x1="28.6" y1="3.1" x2="46" y2="3.1" stroke="black"/>
<path d="M21.2366 25.3521L19.1407 33.0727C18.4896 35.4712 16.0174 36.8877 13.6189 36.2366L3.00314 33.3547C2.20365 33.1377 1.73148 32.3136 1.94852 31.5142L5.61633 18.0032C5.83337 17.2037 6.65742 16.7315 7.45692 16.9485L18.0727 19.8304C20.4712 20.4815 21.8877 22.9537 21.2366 25.3521Z" fill="white" stroke="black"/>
<line x1="9.61462" y1="17.0162" x2="5.05605" y2="33.8084" stroke="black"/>
<path d="M23.0047 45.0871L29.5204 49.7287C31.5446 51.1707 32.0166 53.9805 30.5746 56.0047L24.1924 64.9639C23.7117 65.6386 22.7751 65.796 22.1004 65.3153L10.6978 57.1925C10.0231 56.7118 9.86573 55.7752 10.3464 55.1005L16.7286 46.1413C18.1706 44.1171 20.9805 43.6451 23.0047 45.0871Z" fill="white" stroke="black"/>
<line x1="11.1575" y1="53.1" x2="25.3293" y2="63.1955" stroke="black"/>
<path d="M68.1815 17.805L71.716 31.3515C71.9251 32.1531 71.4449 32.9724 70.6433 33.1816L59.9996 35.9587C57.5948 36.5861 55.1367 35.1453 54.5093 32.7405L52.4896 24.9996C51.8621 22.5949 53.303 20.1368 55.7077 19.5093L66.3514 16.7323C67.153 16.5231 67.9724 17.0034 68.1815 17.805Z" fill="white" stroke="black"/>
<line x1="65.3123" y1="17.1067" x2="69.7051" y2="33.9431" stroke="black"/>
<path d="M65.5254 55.1087L55.2424 64.6092C54.634 65.1714 53.685 65.1339 53.1228 64.5254L45.6581 56.4459C43.9715 54.6205 44.0841 51.7734 45.9096 50.0869L51.7856 44.658C53.611 42.9715 56.458 43.0841 58.1446 44.9096L65.6093 52.989C66.1715 53.5975 66.1339 54.5465 65.5254 55.1087Z" fill="white" stroke="black"/>
<line x1="64.7894" y1="52.249" x2="52.0091" y2="64.0568" stroke="black"/>
</svg>
