<svg width="74" height="70" viewBox="0 0 74 70" fill="none" xmlns="http://www.w3.org/2000/svg">
<rect x="23.5" y="19.5" width="29" height="29" rx="14.5" fill="white" stroke="black"/>
<path d="M31 0.5H45C45.8284 0.5 46.5 1.17157 46.5 2V13C46.5 15.4853 44.4853 17.5 42 17.5H34C31.5147 17.5 29.5 15.4853 29.5 13V2C29.5 1.17157 30.1716 0.5 31 0.5Z" fill="white" stroke="black"/>
<line x1="29.6" y1="3.1" x2="47" y2="3.1" stroke="black"/>
<path d="M22.2335 23.6362L17.6082 30.1636C16.1713 32.1914 13.3627 32.6704 11.3349 31.2335L2.35967 24.8738C1.68374 24.3949 1.52406 23.4586 2.00302 22.7827L10.0972 11.3597C10.5762 10.6838 11.5124 10.5241 12.1883 11.0031L21.1635 17.3628C23.1913 18.7997 23.6704 21.6084 22.2335 23.6362Z" fill="white" stroke="black"/>
<line x1="14.1908" y1="11.8092" x2="4.13087" y2="26.0064" stroke="black"/>
<path d="M19.5544 40.0532L24.6518 46.219C26.2353 48.1345 25.9662 50.971 24.0508 52.5545L15.5728 59.5634C14.9343 60.0913 13.9888 60.0016 13.461 59.3631L4.5406 48.573C4.01275 47.9345 4.10244 46.989 4.74093 46.4611L13.2189 39.4522C15.1343 37.8687 17.9708 38.1378 19.5544 40.0532Z" fill="white" stroke="black"/>
<line x1="6.04088" y1="44.7377" x2="17.1276" y2="58.1483" stroke="black"/>
<path d="M34.552 52.0521H42.552C45.0373 52.0521 47.052 54.0668 47.052 56.5521V67.5521C47.052 68.3805 46.3804 69.0521 45.552 69.0521H31.552C30.7236 69.0521 30.052 68.3805 30.052 67.5521V56.5521C30.052 54.0668 32.0667 52.0521 34.552 52.0521Z" fill="white" stroke="black"/>
<line x1="29.552" y1="65.4521" x2="46.952" y2="65.4521" stroke="black"/>
<path d="M65.8644 12.5208L72.5321 24.8311C72.9266 25.5595 72.6559 26.4699 71.9275 26.8644L62.2551 32.1033C60.0698 33.2869 57.3387 32.4749 56.1551 30.2896L52.345 23.2551C51.1614 21.0698 51.9734 18.3387 54.1587 17.1551L63.8311 11.9162C64.5595 11.5217 65.4699 11.7924 65.8644 12.5208Z" fill="white" stroke="black"/>
<line x1="62.9115" y1="12.5281" x2="71.1984" y2="27.828" stroke="black"/>
<path d="M71.2688 44.8295L65.393 57.5368C65.0453 58.2887 64.1539 58.6164 63.402 58.2688L53.4177 53.6521C51.1619 52.609 50.1787 49.9347 51.2218 47.6789L54.5794 40.4176C55.6225 38.1618 58.2967 37.1787 60.5525 38.2218L70.5368 42.8385C71.2888 43.1862 71.6165 44.0776 71.2688 44.8295Z" fill="white" stroke="black"/>
<line x1="69.4964" y1="42.4676" x2="62.1937" y2="58.2609" stroke="black"/>
</svg>
