<svg width="92" height="92" viewBox="0 0 92 92" fill="none" xmlns="http://www.w3.org/2000/svg">
<rect x="21.5" y="21.5" width="49" height="49" rx="24.5" fill="white" stroke="black"/>
<path d="M39 0.5H53C53.8284 0.5 54.5 1.17157 54.5 2V13C54.5 15.4853 52.4853 17.5 50 17.5H42C39.5147 17.5 37.5 15.4853 37.5 13V2C37.5 1.17157 38.1716 0.5 39 0.5Z" fill="white" stroke="black"/>
<line x1="38" y1="3.5" x2="54" y2="3.5" stroke="black"/>
<path d="M71.7884 7.76777L81.6879 17.6673C82.2737 18.253 82.2737 19.2028 81.6879 19.7886L73.9098 27.5668C72.1524 29.3241 69.3032 29.3241 67.5458 27.5668L61.8889 21.9099C60.1316 20.1525 60.1316 17.3033 61.8889 15.5459L69.6671 7.76777C70.2529 7.18198 71.2027 7.18198 71.7884 7.76777Z" fill="white" stroke="black"/>
<line x1="68.96" y1="8.61628" x2="80.5565" y2="20.2128" stroke="black"/>
<path d="M8.76777 17.6672L18.6673 7.76775C19.253 7.18196 20.2028 7.18196 20.7886 7.76775L28.5668 15.5459C30.3241 17.3033 30.3241 20.1525 28.5668 21.9099L22.9099 27.5667C21.1525 29.3241 18.3033 29.3241 16.5459 27.5667L8.76777 19.7886C8.18198 19.2028 8.18198 18.253 8.76777 17.6672Z" fill="white" stroke="black"/>
<line x1="9.64645" y1="20.9602" x2="21.6464" y2="8.96017" stroke="black"/>
<path d="M91.5 39L91.5 53C91.5 53.8284 90.8284 54.5 90 54.5L79 54.5C76.5147 54.5 74.5 52.4853 74.5 50L74.5 42C74.5 39.5147 76.5147 37.5 79 37.5L90 37.5C90.8284 37.5 91.5 38.1716 91.5 39Z" fill="white" stroke="black"/>
<line x1="88.9" y1="37.6" x2="88.9" y2="55" stroke="black"/>
<path d="M0.5 53L0.5 39C0.5 38.1716 1.17157 37.5 2 37.5L13 37.5C15.4853 37.5 17.5 39.5147 17.5 42L17.5 50C17.5 52.4853 15.4853 54.5 13 54.5L2 54.5C1.17157 54.5 0.5 53.8284 0.5 53Z" fill="white" stroke="black"/>
<line x1="3.5" y1="54" x2="3.5" y2="38" stroke="black"/>
<path d="M82.2544 74.3549L72.355 84.2544C71.7692 84.8402 70.8194 84.8402 70.2336 84.2544L62.4555 76.4762C60.6981 74.7188 60.6981 71.8696 62.4555 70.1122L68.1123 64.4554C69.8697 62.698 72.7189 62.698 74.4763 64.4554L82.2544 72.2336C82.8402 72.8193 82.8402 73.7691 82.2544 74.3549Z" fill="white" stroke="black"/>
<line x1="80.6673" y1="71.3536" x2="69.3536" y2="82.6673" stroke="black"/>
<path d="M42 74.5H50C52.4853 74.5 54.5 76.5147 54.5 79V90C54.5 90.8284 53.8284 91.5 53 91.5H39C38.1716 91.5 37.5 90.8284 37.5 90V79C37.5 76.5147 39.5147 74.5 42 74.5Z" fill="white" stroke="black"/>
<line x1="38" y1="88.5" x2="54" y2="88.5" stroke="black"/>
<path d="M24.1817 64.1612L29.8386 69.818C31.5959 71.5754 31.5959 74.4246 29.8386 76.182L22.0604 83.9602C21.4746 84.546 20.5249 84.546 19.9391 83.9602L10.0396 74.0607C9.45381 73.4749 9.45381 72.5251 10.0396 71.9394L17.8178 64.1612C19.5751 62.4038 22.4244 62.4038 24.1817 64.1612Z" fill="white" stroke="black"/>
<line x1="11.3536" y1="70.6464" x2="23.3536" y2="82.6464" stroke="black"/>
</svg>
