<svg width="30" height="70" viewBox="0 0 30 70" fill="none" xmlns="http://www.w3.org/2000/svg">
<rect x="0.5" y="20.5" width="29" height="29" rx="14.5" fill="white" stroke="black"/>
<path d="M8 0.5H22C22.8284 0.5 23.5 1.17157 23.5 2V13C23.5 15.4853 21.4853 17.5 19 17.5H11C8.51472 17.5 6.5 15.4853 6.5 13V2C6.5 1.17157 7.17157 0.5 8 0.5Z" fill="white" stroke="black"/>
<line x1="6.59998" y1="3.1" x2="24" y2="3.1" stroke="black"/>
<path d="M11 52.5H19C21.4853 52.5 23.5 54.5147 23.5 57V68C23.5 68.8284 22.8284 69.5 22 69.5H8C7.17157 69.5 6.5 68.8284 6.5 68V57C6.5 54.5147 8.51472 52.5 11 52.5Z" fill="white" stroke="black"/>
<line x1="6" y1="65.9" x2="23.4" y2="65.9" stroke="black"/>
</svg>
